# xmcd
#
# Track frame offsets:
#	150
#	11514
#	34701
#	57076
#	69186
#	82383
#	99473
#	113845
#	125776
#	137783
#	150867
#	165030
#	179378
#	191259
#	203196
#	216920
#
# Disc length: 3054 seconds
#
# Revision: 1
# Processed by: cddbd v1.5.2PL0 Copyright (c) Steve Scherf et al.
# Submitted via: audiograbber 1.83.01
#
DISCID=d00bec10
DTITLE=Various Artist - Blues Legends
DYEAR=2004
DGENRE=Blues
TTITLE0=John Lee Hooker - Boom Boom
TTITLE1=Muddy Waters - Mannish Boy (live)
TTITLE2=BB King - The Thrill is Gone
TTITLE3=Robert Johnson - Crossroad Blues
TTITLE4=Ray Charles - Baby Won't You Please Come Hom
TTITLE5=Howlin' Wolf - Dust my broom
TTITLE6=Blind Willie Johnson - Nobody's Fault But Mine
TTITLE7=Lightning Slim - Rooster Blues
TTITLE8=Jimmy Reed - Honest I do
TTITLE9=Billie Holiday - St Louis Blues
TTITLE10=Dinah Washington - Mello Mama Blues
TTITLE11=Lowell Fulson - Reconsider Baby
TTITLE12=Nina Simone - Work Song
TTITLE13=Little Walter - My Babe
TTITLE14=Ike and Tina Turner - I've Been Loving You Too Long (live)
TTITLE15=John Lee Hooker - I'm In The Mood
EXTD=Disk One
EXTT0=
EXTT1=
EXTT2=
EXTT3=
EXTT4=
EXTT5=
EXTT6=
EXTT7=
EXTT8=
EXTT9=
EXTT10=
EXTT11=
EXTT12=
EXTT13=
EXTT14=
EXTT15=
PLAYORDER=
